<?xml version="1.0" encoding="UTF-8"?>
<svg width="32px" height="40px" viewBox="0 0 32 40" version="1.1" xmlns="http://www.w3.org/2000/svg" xmlns:xlink="http://www.w3.org/1999/xlink">
    <!-- Generator: sketchtool 52.5 (67469) - http://www.bohemiancoding.com/sketch -->
    <title>117CB21A-8C92-450E-A70D-99F6785D5EEF</title>
    <desc>Created with sketchtool.</desc>
    <g id="Brand" stroke="none" stroke-width="1" fill="none" fill-rule="evenodd">
        <g id="Brand-/-Symbol-/-Color-/-40">
            <rect x="0" y="0" width="32" height="40"></rect>
            <g id="Symbol" transform="translate(2.500000, 2.500000)" fill-rule="nonzero">
                <path d="M16.8899866,0.0426200744 C27.0972742,0.46070019 26.6529237,0.442500046 27.0597127,12.4388992 C27.3717845,21.6420414 27.5252668,24.6412828 11.601729,32.0330178 C-3.04267663,38.8309773 -1.41552045,33.2326577 3.46594809,10.4394993 C5.27832844,1.97690825 7.1270495,-0.357259897 16.8899866,0.0426200744 Z" id="Shape" fill="#178A9E"></path>
                <path d="M6.63726751,24.5422824 L6.63726751,22.8211548 C6.63726751,22.3458785 7.02921201,21.9605909 7.51270004,21.9605909 L8.38813258,21.9605909 C10.3220847,21.9605909 11.8898627,20.4194407 11.8898627,18.5183356 L11.8898627,13.3549527 C11.8898627,9.55274248 15.0254187,6.47044209 18.893323,6.47044209 L19.7687555,6.47044209 C20.2522435,6.47044209 20.644188,6.85572964 20.644188,7.33100592 L20.644188,9.05213357 C20.644188,9.52740984 20.2522435,9.91269739 19.7687555,9.91269739 L18.893323,9.91269739 C16.9593708,9.91269739 15.3915928,11.4538476 15.3915928,13.3549527 L15.3915928,18.5183356 C15.3915928,22.3205458 12.2560369,25.4028462 8.38813258,25.4028462 L7.51270004,25.4028462 C7.02921201,25.4028462 6.63726751,25.0175587 6.63726751,24.5422824 Z" id="S" fill="#FFFFFF"></path>
            </g>
        </g>
    </g>
</svg>